<svg width="157" height="34" viewBox="0 0 157 34" fill="none" xmlns="http://www.w3.org/2000/svg">
<path fill-rule="evenodd" clip-rule="evenodd" d="M0.985572 4.48726C0 6.33868 0 8.77993 0 13.6624V20.3376C0 25.2201 0 27.6613 0.985572 29.5127C1.78092 31.0068 3.00937 32.2286 4.51152 33.0197C6.37294 34 8.82739 34 13.7363 34L15.6231 34V25.6409C11.4525 24.9294 8.27888 21.3156 8.27888 16.9644C8.27888 12.1024 12.2417 8.16087 17.13 8.16087C22.0184 8.16087 25.9812 12.1024 25.9812 16.9644C25.9812 21.3421 22.7688 24.9734 18.5607 25.6536V34L20.4475 34C25.3564 34 27.8108 34 29.6723 33.0197C31.1744 32.2286 32.4029 31.0068 33.1982 29.5127C34.1838 27.6613 34.1838 25.2201 34.1838 20.3376V13.6624C34.1838 8.77993 34.1838 6.33868 33.1982 4.48726C32.4029 2.99319 31.1744 1.77135 29.6723 0.980273C27.8108 0 25.3564 0 20.4475 0H13.7363C8.82738 0 6.37294 0 4.51152 0.980273C3.00937 1.77135 1.78092 2.99319 0.985572 4.48726ZM17.13 22.8461C20.396 22.8461 23.0435 20.2128 23.0435 16.9644C23.0435 13.7161 20.396 11.0827 17.13 11.0827C13.8641 11.0827 11.2166 13.7161 11.2166 16.9644C11.2166 20.2128 13.8641 22.8461 17.13 22.8461Z" fill="#00A656"/>
<path d="M58.5363 12.4609V25.2109H56.8533V14.0929H51.6513V25.2109H49.9683V14.0929H47.8008V12.4609H49.9683V11.9509C49.9683 8.68693 51.7533 7.05493 55.3233 7.05493C56.0373 7.05493 56.8533 7.15693 57.7713 7.36093V8.89093C56.9723 8.75493 56.1563 8.68693 55.3233 8.68693C54.0483 8.68693 53.1133 8.93343 52.5183 9.42643C51.9403 9.91943 51.6513 10.7609 51.6513 11.9509V12.4609H58.5363Z" fill="#01011B"/>
<path d="M68.0637 12.1549C69.6107 12.1549 70.8262 12.6309 71.7102 13.5829C72.6112 14.5179 73.0617 15.7844 73.0617 17.3824V25.2109H71.3787V17.3824C71.3787 16.2434 71.0727 15.3594 70.4607 14.7304C69.8657 14.1014 69.0157 13.7869 67.9107 13.7869C66.6867 13.7869 65.6922 14.1779 64.9272 14.9599C64.1622 15.7249 63.7797 16.9149 63.7797 18.5299V25.2109H62.0967V12.4609H63.7797V14.4499C64.7317 12.9199 66.1597 12.1549 68.0637 12.1549Z" fill="#01011B"/>
<path d="M87.281 7.36093H88.964V25.2109H87.281V22.7119C86.108 24.5819 84.391 25.5169 82.13 25.5169C80.311 25.5169 78.7555 24.8709 77.4635 23.5789C76.1885 22.2869 75.551 20.7059 75.551 18.8359C75.551 16.9659 76.1885 15.3849 77.4635 14.0929C78.7555 12.8009 80.311 12.1549 82.13 12.1549C84.391 12.1549 86.108 13.0899 87.281 14.9599V7.36093ZM78.6875 22.4314C79.6565 23.4004 80.8465 23.8849 82.2575 23.8849C83.6685 23.8849 84.8585 23.4004 85.8275 22.4314C86.7965 21.4454 87.281 20.2469 87.281 18.8359C87.281 17.4249 86.7965 16.2349 85.8275 15.2659C84.8585 14.2799 83.6685 13.7869 82.2575 13.7869C80.8465 13.7869 79.6565 14.2799 78.6875 15.2659C77.7185 16.2349 77.234 17.4249 77.234 18.8359C77.234 20.2469 77.7185 21.4454 78.6875 22.4314Z" fill="#01011B"/>
<path d="M103.492 12.4609H105.175V24.7009C105.175 26.5369 104.546 27.9819 103.288 29.0359C102.03 30.0899 100.526 30.6169 98.7749 30.6169C95.7829 30.6169 93.7684 29.5799 92.7314 27.5059L94.2104 26.6644C94.9754 28.2114 96.4969 28.9849 98.7749 28.9849C100.237 28.9849 101.384 28.5939 102.217 27.8119C103.067 27.0469 103.492 26.0099 103.492 24.7009V22.7119C102.319 24.5819 100.602 25.5169 98.3414 25.5169C96.5224 25.5169 94.9669 24.8709 93.6749 23.5789C92.3999 22.2869 91.7624 20.7059 91.7624 18.8359C91.7624 16.9659 92.3999 15.3849 93.6749 14.0929C94.9669 12.8009 96.5224 12.1549 98.3414 12.1549C100.602 12.1549 102.319 13.0899 103.492 14.9599V12.4609ZM94.8989 22.4314C95.8679 23.4004 97.0579 23.8849 98.4689 23.8849C99.8799 23.8849 101.07 23.4004 102.039 22.4314C103.008 21.4454 103.492 20.2469 103.492 18.8359C103.492 17.4249 103.008 16.2349 102.039 15.2659C101.07 14.2799 99.8799 13.7869 98.4689 13.7869C97.0579 13.7869 95.8679 14.2799 94.8989 15.2659C93.9299 16.2349 93.4454 17.4249 93.4454 18.8359C93.4454 20.2469 93.9299 21.4454 94.8989 22.4314Z" fill="#01011B"/>
<path d="M117.715 12.4609H119.398V25.2109H117.715V23.2219C116.763 24.7519 115.335 25.5169 113.431 25.5169C111.884 25.5169 110.66 25.0494 109.759 24.1144C108.875 23.1624 108.433 21.8874 108.433 20.2894V12.4609H110.116V20.2894C110.116 21.4284 110.413 22.3124 111.008 22.9414C111.62 23.5704 112.479 23.8849 113.584 23.8849C114.808 23.8849 115.802 23.5024 116.567 22.7374C117.332 21.9554 117.715 20.7569 117.715 19.1419V12.4609Z" fill="#01011B"/>
<path d="M124.667 9.40093C124.429 9.63893 124.14 9.75793 123.8 9.75793C123.46 9.75793 123.171 9.63893 122.933 9.40093C122.695 9.16293 122.576 8.87393 122.576 8.53393C122.576 8.19393 122.695 7.90493 122.933 7.66693C123.171 7.42893 123.46 7.30993 123.8 7.30993C124.14 7.30993 124.429 7.42893 124.667 7.66693C124.905 7.90493 125.024 8.19393 125.024 8.53393C125.024 8.87393 124.905 9.16293 124.667 9.40093ZM122.958 25.2109V12.4609H124.641V25.2109H122.958Z" fill="#01011B"/>
<path d="M139.177 7.36093H140.86V25.2109H139.177V22.7119C138.004 24.5819 136.287 25.5169 134.026 25.5169C132.207 25.5169 130.652 24.8709 129.36 23.5789C128.085 22.2869 127.447 20.7059 127.447 18.8359C127.447 16.9659 128.085 15.3849 129.36 14.0929C130.652 12.8009 132.207 12.1549 134.026 12.1549C136.287 12.1549 138.004 13.0899 139.177 14.9599V7.36093ZM130.584 22.4314C131.553 23.4004 132.743 23.8849 134.154 23.8849C135.565 23.8849 136.755 23.4004 137.724 22.4314C138.693 21.4454 139.177 20.2469 139.177 18.8359C139.177 17.4249 138.693 16.2349 137.724 15.2659C136.755 14.2799 135.565 13.7869 134.154 13.7869C132.743 13.7869 131.553 14.2799 130.584 15.2659C129.615 16.2349 129.13 17.4249 129.13 18.8359C129.13 20.2469 129.615 21.4454 130.584 22.4314Z" fill="#01011B"/>
<path d="M150.314 12.1549C152.201 12.1549 153.723 12.8264 154.879 14.1694C156.052 15.4954 156.638 17.0679 156.638 18.8869C156.638 19.0739 156.621 19.3374 156.587 19.6774H145.393C145.563 20.9694 146.107 21.9979 147.025 22.7629C147.96 23.5109 149.107 23.8849 150.467 23.8849C151.436 23.8849 152.269 23.6894 152.966 23.2984C153.68 22.8904 154.216 22.3634 154.573 21.7174L156.052 22.5844C155.491 23.4854 154.726 24.1994 153.757 24.7264C152.788 25.2534 151.683 25.5169 150.442 25.5169C148.436 25.5169 146.804 24.8879 145.546 23.6299C144.288 22.3719 143.659 20.7739 143.659 18.8359C143.659 16.9319 144.279 15.3424 145.52 14.0674C146.761 12.7924 148.359 12.1549 150.314 12.1549ZM150.314 13.7869C148.988 13.7869 147.875 14.1864 146.974 14.9854C146.09 15.7674 145.563 16.7874 145.393 18.0454H154.904C154.734 16.7024 154.216 15.6569 153.349 14.9089C152.482 14.1609 151.47 13.7869 150.314 13.7869Z" fill="#01011B"/>
<path fill-rule="evenodd" clip-rule="evenodd" d="M58.7914 12.2058V25.4658H56.5984V14.3478H51.9064V25.4658H49.7134V14.3478H47.5459V12.2058H49.7134V11.9508C49.7134 10.2733 50.1731 8.9701 51.1351 8.09061C52.0927 7.21507 53.5045 6.7998 55.3234 6.7998C56.0608 6.7998 56.8959 6.90503 57.8267 7.11188L58.0264 7.15625V9.19288L57.7286 9.14219C56.9441 9.00866 56.1425 8.94181 55.3234 8.94181C54.0732 8.94181 53.2104 9.18495 52.6825 9.62149C52.1878 10.0444 51.9064 10.7944 51.9064 11.9508V12.2058H58.7914ZM52.5184 9.4263C53.1134 8.93331 54.0484 8.68681 55.3234 8.68681C56.068 8.68681 56.799 8.74114 57.5164 8.8498C57.6016 8.8627 57.6866 8.87637 57.7714 8.8908V7.3608C56.8534 7.1568 56.0374 7.0548 55.3234 7.0548C51.7534 7.0548 49.9684 8.6868 49.9684 11.9508V12.4608H47.8009V14.0928H49.9684V25.2108H51.6514V14.0928H56.8534V25.2108H58.5364V12.4608H51.6514V11.9508C51.6514 10.7608 51.9404 9.9193 52.5184 9.4263ZM73.3168 25.4658H71.1238V17.3823C71.1238 16.2892 70.8312 15.4766 70.2781 14.9081L70.2756 14.9056C69.7412 14.3407 68.9662 14.0418 67.9108 14.0418C66.7465 14.0418 65.8207 14.4112 65.1096 15.1381L65.1076 15.1401C64.4096 15.8382 64.0348 16.9494 64.0348 18.5298V25.4658H61.8418V12.2058H64.0348V13.6612C65.017 12.4872 66.3679 11.8998 68.0638 11.8998C69.6661 11.8998 70.9543 12.3949 71.8956 13.4076C72.8513 14.4003 73.3168 15.7353 73.3168 17.3823V25.4658ZM71.7103 13.5828C70.8263 12.6308 69.6108 12.1548 68.0638 12.1548C66.3229 12.1548 64.9799 12.7944 64.0348 14.0736C63.9463 14.1934 63.8613 14.3188 63.7798 14.4498V12.4608H62.0968V25.2108H63.7798V18.5298C63.7798 16.9148 64.1623 15.7248 64.9273 14.9598C65.6923 14.1778 66.6868 13.7868 67.9108 13.7868C69.0158 13.7868 69.8658 14.1013 70.4608 14.7303C71.0728 15.3593 71.3788 16.2433 71.3788 17.3823V25.2108H73.0618V17.3823C73.0618 15.7843 72.6113 14.5178 71.7103 13.5828ZM87.0261 7.1058H89.2191V25.4658H87.0261V23.5144C85.8303 25.0172 84.191 25.7718 82.1301 25.7718C80.2431 25.7718 78.6228 25.0987 77.2833 23.7591L77.2821 23.7579C75.9584 22.4166 75.2961 20.7706 75.2961 18.8358C75.2961 16.901 75.9584 15.255 77.2821 13.9137L77.2833 13.9125C78.6228 12.5729 80.2431 11.8998 82.1301 11.8998C84.191 11.8998 85.8303 12.6544 87.0261 14.1572V7.1058ZM87.2811 14.9598C87.1988 14.8286 87.1138 14.7019 87.0261 14.5799C85.8644 12.9632 84.2324 12.1548 82.1301 12.1548C80.3111 12.1548 78.7556 12.8008 77.4636 14.0928C76.1886 15.3848 75.5511 16.9658 75.5511 18.8358C75.5511 20.7058 76.1886 22.2868 77.4636 23.5788C78.7556 24.8708 80.3111 25.5168 82.1301 25.5168C84.2324 25.5168 85.8644 24.7084 87.0261 23.0917C87.1138 22.9697 87.1988 22.843 87.2811 22.7118V25.2108H88.9641V7.3608H87.2811V14.9598ZM85.6473 15.4461L85.6457 15.4445C84.7257 14.5084 83.6018 14.0418 82.2576 14.0418C80.9134 14.0418 79.7894 14.5084 78.8694 15.4445L78.8679 15.4461C77.9483 16.3657 77.4891 17.4902 77.4891 18.8358C77.4891 20.1812 77.9482 21.3148 78.8688 22.2519C79.7882 23.1709 80.9124 23.6298 82.2576 23.6298C83.6027 23.6298 84.7269 23.1709 85.6464 22.2519C86.567 21.3148 87.0261 20.1812 87.0261 18.8358C87.0261 17.4902 86.5669 16.3657 85.6473 15.4461ZM85.8276 22.4313C84.8586 23.4003 83.6686 23.8848 82.2576 23.8848C80.8466 23.8848 79.6566 23.4003 78.6876 22.4313C77.7186 21.4453 77.2341 20.2468 77.2341 18.8358C77.2341 17.4248 77.7186 16.2348 78.6876 15.2658C79.6566 14.2798 80.8466 13.7868 82.2576 13.7868C83.6686 13.7868 84.8586 14.2798 85.8276 15.2658C86.7966 16.2348 87.2811 17.4248 87.2811 18.8358C87.2811 20.2468 86.7966 21.4453 85.8276 22.4313ZM103.238 12.2058H105.431V24.7008C105.431 26.6022 104.775 28.1227 103.452 29.2313C102.145 30.3264 100.582 30.8718 98.775 30.8718C95.7196 30.8718 93.5967 29.8064 92.5034 27.6198L92.3953 27.4037L94.3193 26.309L94.4391 26.5513C95.147 27.9828 96.5575 28.7298 98.775 28.7298C100.191 28.7298 101.269 28.3521 102.043 27.6259L102.047 27.6222C102.835 26.9128 103.238 25.9491 103.238 24.7008V23.5144C102.042 25.0172 100.402 25.7718 98.3415 25.7718C96.4545 25.7718 94.8343 25.0987 93.4947 23.7591L93.4935 23.7579C92.1698 22.4166 91.5075 20.7706 91.5075 18.8358C91.5075 16.901 92.1698 15.255 93.4935 13.9137L93.4947 13.9125C94.8343 12.5729 96.4545 11.8998 98.3415 11.8998C100.402 11.8998 102.042 12.6544 103.238 14.1572V12.2058ZM103.493 14.9598C103.41 14.8286 103.325 14.7019 103.238 14.5799C102.076 12.9632 100.444 12.1548 98.3415 12.1548C96.5225 12.1548 94.967 12.8008 93.675 14.0928C92.4 15.3848 91.7625 16.9658 91.7625 18.8358C91.7625 20.7058 92.4 22.2868 93.675 23.5788C94.967 24.8708 96.5225 25.5168 98.3415 25.5168C100.444 25.5168 102.076 24.7084 103.238 23.0917C103.325 22.9697 103.41 22.843 103.493 22.7118V24.7008C103.493 26.0098 103.068 27.0468 102.218 27.8118C101.385 28.5938 100.237 28.9848 98.775 28.9848C96.6104 28.9848 95.1288 28.2864 94.3303 26.8895C94.2885 26.8164 94.2486 26.7413 94.2105 26.6643L92.7315 27.5058C93.7685 29.5798 95.783 30.6168 98.775 30.6168C100.526 30.6168 102.03 30.0898 103.288 29.0358C104.547 27.9818 105.175 26.5368 105.175 24.7008V12.4608H103.493V14.9598ZM101.859 15.4461L101.857 15.4445C100.937 14.5084 99.8132 14.0418 98.469 14.0418C97.1248 14.0418 96.0008 14.5084 95.0809 15.4445L95.0793 15.4461C94.1597 16.3657 93.7005 17.4902 93.7005 18.8358C93.7005 20.1812 94.1596 21.3148 95.0802 22.2519C95.9997 23.1709 97.1238 23.6298 98.469 23.6298C99.8142 23.6298 100.938 23.1709 101.858 22.2519C102.778 21.3148 103.238 20.1812 103.238 18.8358C103.238 17.4902 102.778 16.3657 101.859 15.4461ZM102.039 22.4313C101.07 23.4003 99.88 23.8848 98.469 23.8848C97.058 23.8848 95.868 23.4003 94.899 22.4313C93.93 21.4453 93.4455 20.2468 93.4455 18.8358C93.4455 17.4248 93.93 16.2348 94.899 15.2658C95.868 14.2798 97.058 13.7868 98.469 13.7868C99.88 13.7868 101.07 14.2798 102.039 15.2658C103.008 16.2348 103.493 17.4248 103.493 18.8358C103.493 20.2468 103.008 21.4453 102.039 22.4313ZM117.46 12.2058H119.653V25.4658H117.46V24.0104C116.478 25.1844 115.127 25.7718 113.431 25.7718C111.829 25.7718 110.533 25.2856 109.575 24.2912L109.572 24.2878C108.635 23.2784 108.178 21.9361 108.178 20.2893V12.2058H110.371V20.2893C110.371 21.3835 110.656 22.1966 111.192 22.7648C111.745 23.3315 112.53 23.6298 113.584 23.6298C114.75 23.6298 115.676 23.268 116.386 22.5577C117.086 21.8419 117.46 20.7207 117.46 19.1418V12.2058ZM116.567 22.7373C117.332 21.9553 117.715 20.7568 117.715 19.1418V12.4608H119.398V25.2108H117.715V23.2218C117.633 23.3528 117.548 23.4782 117.46 23.598C116.515 24.8772 115.172 25.5168 113.431 25.5168C111.884 25.5168 110.66 25.0493 109.759 24.1143C108.875 23.1623 108.433 21.8873 108.433 20.2893V12.4608H110.116V20.2893C110.116 21.4283 110.413 22.3123 111.008 22.9413C111.62 23.5703 112.479 23.8848 113.584 23.8848C114.808 23.8848 115.802 23.5023 116.567 22.7373ZM122.703 25.4658V12.2058H124.896V25.4658H122.703ZM138.923 7.1058H141.116V25.4658H138.923V23.5144C137.727 25.0172 136.087 25.7718 134.027 25.7718C132.14 25.7718 130.519 25.0987 129.18 23.7591L129.179 23.7579C127.855 22.4166 127.193 20.7706 127.193 18.8358C127.193 16.901 127.855 15.255 129.179 13.9137L129.18 13.9125C130.519 12.5729 132.14 11.8998 134.027 11.8998C136.087 11.8998 137.727 12.6544 138.923 14.1572V7.1058ZM139.178 14.9598C139.095 14.8286 139.01 14.7019 138.923 14.5799C137.761 12.9632 136.129 12.1548 134.027 12.1548C132.208 12.1548 130.652 12.8008 129.36 14.0928C128.085 15.3848 127.448 16.9658 127.448 18.8358C127.448 20.7058 128.085 22.2868 129.36 23.5788C130.652 24.8708 132.208 25.5168 134.027 25.5168C136.129 25.5168 137.761 24.7084 138.923 23.0917C139.01 22.9697 139.095 22.843 139.178 22.7118V25.2108H140.861V7.3608H139.178V14.9598ZM137.544 15.4461L137.542 15.4445C136.622 14.5084 135.498 14.0418 134.154 14.0418C132.81 14.0418 131.686 14.5084 130.766 15.4445L130.764 15.4461C129.845 16.3657 129.386 17.4902 129.386 18.8358C129.386 20.181 129.845 21.3145 130.765 22.2515C131.684 23.1708 132.809 23.6298 134.154 23.6298C135.499 23.6298 136.624 23.1708 137.543 22.2515C138.464 21.3145 138.923 20.181 138.923 18.8358C138.923 17.4902 138.463 16.3657 137.544 15.4461ZM137.724 22.4313C136.755 23.4003 135.565 23.8848 134.154 23.8848C132.743 23.8848 131.553 23.4003 130.584 22.4313C129.615 21.4453 129.131 20.2468 129.131 18.8358C129.131 17.4248 129.615 16.2348 130.584 15.2658C131.553 14.2798 132.743 13.7868 134.154 13.7868C135.565 13.7868 136.755 14.2798 137.724 15.2658C138.693 16.2348 139.178 17.4248 139.178 18.8358C139.178 20.2468 138.693 21.4453 137.724 22.4313ZM156.052 22.5843C156.007 22.6568 155.96 22.7281 155.913 22.7982C155.367 23.599 154.648 24.2417 153.757 24.7263C152.788 25.2533 151.683 25.5168 150.442 25.5168C148.436 25.5168 146.804 24.8878 145.546 23.6298C144.288 22.3718 143.659 20.7738 143.659 18.8358C143.659 16.9318 144.279 15.3423 145.52 14.0673C146.761 12.7923 148.359 12.1548 150.314 12.1548C152.201 12.1548 153.723 12.8263 154.879 14.1693C156.052 15.4953 156.638 17.0678 156.638 18.8868C156.638 19.0738 156.621 19.3373 156.587 19.6773H145.393C145.404 19.7635 145.417 19.8485 145.432 19.9323C145.637 21.1053 146.168 22.0488 147.025 22.7628C147.96 23.5108 149.107 23.8848 150.467 23.8848C151.436 23.8848 152.269 23.6893 152.966 23.2983C153.618 22.926 154.121 22.4545 154.475 21.8839C154.509 21.8293 154.542 21.7738 154.573 21.7173L156.052 22.5843ZM152.841 23.0765C153.519 22.689 154.018 22.1943 154.35 21.594L154.476 21.365L156.407 22.4968L156.268 22.7191C155.683 23.659 154.885 24.4031 153.879 24.9503C152.868 25.5001 151.72 25.7718 150.442 25.7718C148.378 25.7718 146.678 25.1222 145.366 23.8101C144.055 22.4998 143.404 20.8348 143.404 18.8358C143.404 16.8705 144.047 15.2156 145.338 13.8894C146.632 12.56 148.298 11.8998 150.314 11.8998C152.27 11.8998 153.863 12.5992 155.071 14.0016C156.286 15.3753 156.893 17.008 156.893 18.8868C156.893 19.0865 156.876 19.3599 156.841 19.7027L156.818 19.9323H145.691C145.892 21.0296 146.392 21.9024 147.186 22.5653C148.07 23.2712 149.158 23.6298 150.467 23.6298C151.402 23.6298 152.189 23.4416 152.841 23.0765ZM147.143 15.1763C146.376 15.8544 145.892 16.7218 145.692 17.7903H154.609C154.412 16.6382 153.932 15.7487 153.182 15.1019C152.362 14.3942 151.41 14.0418 150.314 14.0418C149.044 14.0418 147.992 14.423 147.143 15.1763ZM154.867 17.7903C154.666 16.5693 154.16 15.6088 153.349 14.9088C152.482 14.1608 151.47 13.7868 150.314 13.7868C148.988 13.7868 147.875 14.1863 146.974 14.9853C146.151 15.7138 145.637 16.6488 145.433 17.7903C145.418 17.8742 145.405 17.9592 145.393 18.0453H154.904C154.894 17.9591 154.881 17.8741 154.867 17.7903ZM124.847 9.58112C124.561 9.86748 124.207 10.0128 123.8 10.0128C123.393 10.0128 123.039 9.86748 122.752 9.58112C122.466 9.29476 122.321 8.94067 122.321 8.5338C122.321 8.12694 122.466 7.77285 122.752 7.48649C123.039 7.20013 123.393 7.0548 123.8 7.0548C124.207 7.0548 124.561 7.20013 124.847 7.48649C125.133 7.77286 125.279 8.12695 125.279 8.5338C125.279 8.94066 125.133 9.29475 124.847 9.58112ZM123.8 9.7578C124.14 9.7578 124.429 9.6388 124.667 9.4008C124.905 9.1628 125.024 8.8738 125.024 8.5338C125.024 8.1938 124.905 7.9048 124.667 7.6668C124.429 7.4288 124.14 7.3098 123.8 7.3098C123.46 7.3098 123.171 7.4288 122.933 7.6668C122.695 7.9048 122.576 8.1938 122.576 8.5338C122.576 8.8738 122.695 9.1628 122.933 9.4008C123.171 9.6388 123.46 9.7578 123.8 9.7578ZM122.958 12.4608V25.2108H124.641V12.4608H122.958Z" fill="#01011B"/>
</svg>
