<svg width="34" height="34" viewBox="0 0 34 34" fill="none" xmlns="http://www.w3.org/2000/svg">
<path fill-rule="evenodd" clip-rule="evenodd" d="M0.980274 4.48726C0 6.33868 0 8.77993 0 13.6624V20.3376C0 25.2201 0 27.6613 0.980274 29.5127C1.77135 31.0068 2.99319 32.2286 4.48726 33.0197C6.33868 34 8.77993 34 13.6624 34L15.5391 34V25.6409C11.391 24.9294 8.23438 21.3156 8.23438 16.9644C8.23438 12.1024 12.1759 8.16087 17.0379 8.16087C21.9 8.16087 25.8415 12.1024 25.8415 16.9644C25.8415 21.3421 22.6464 24.9734 18.4609 25.6536V34L20.3376 34C25.2201 34 27.6613 34 29.5127 33.0197C31.0068 32.2286 32.2287 31.0068 33.0197 29.5127C34 27.6613 34 25.2201 34 20.3376V13.6624C34 8.77993 34 6.33868 33.0197 4.48726C32.2287 2.99319 31.0068 1.77135 29.5127 0.980273C27.6613 0 25.2201 0 20.3376 0H13.6624C8.77993 0 6.33868 0 4.48726 0.980273C2.99319 1.77135 1.77135 2.99319 0.980274 4.48726ZM17.0379 22.8461C20.2863 22.8461 22.9196 20.2128 22.9196 16.9644C22.9196 13.7161 20.2863 11.0827 17.0379 11.0827C13.7896 11.0827 11.1562 13.7161 11.1562 16.9644C11.1562 20.2128 13.7896 22.8461 17.0379 22.8461Z" fill="#00A656"/>
</svg>
